<?xml version="1.0" ?><svg data-name="Layer 1" id="Layer_1" viewBox="0 0 32 32" xmlns="http://www.w3.org/2000/svg"><title/>
<path d="M7,20a4,4,0,1,0-4-4A4,4,0,0,0,7,20Zm0-7a3,3,0,1,1-3,3A3,3,0,0,1,7,13Z"/><circle cx="3" cy="25" r="1"/><path d="M30,15H17a2,2,0,0,0-2,2v1H14V16A7,7,0,0,0,0,16V26a2,2,0,0,0,2,2H12a2,2,0,0,0,2-2V25h1v1a2,2,0,0,0,2,2H30a2,2,0,0,0,2-2V17A2,2,0,0,0,30,15ZM7,10a6,6,0,1,1-6,6A6,6,0,0,1,7,10Zm6,16a1,1,0,0,1-1,1H2a1,1,0,0,1-1-1V19.59a7,7,0,0,0,12,0V26Zm1-2V19h1v5H14Zm17,2a1,1,0,0,1-1,1H17a1,1,0,0,1-1-1V17a1,1,0,0,1,1-1H30a1,1,0,0,1,1,1v9Z"/></svg>