<?xml version="1.0" encoding="UTF-8"?>
<svg xmlns="http://www.w3.org/2000/svg" xmlns:xlink="http://www.w3.org/1999/xlink" width="16px" height="16px" viewBox="0 0 16 16" version="1.1">
<g id="surface1">
<path style=" stroke:none;fill-rule:nonzero;fill:rgb(0%,0%,0%);fill-opacity:1;" d="M 8.132812 6 L 9.199219 6 L 9.199219 4.535156 L 10.667969 4.535156 L 10.667969 3.464844 L 9.199219 3.464844 L 9.199219 2 L 8.132812 2 L 8.132812 3.464844 L 6.667969 3.464844 L 6.667969 4.535156 L 8.132812 4.535156 Z M 13.332031 3.332031 L 13.332031 7 L 4.964844 8.480469 L 3.332031 2 L 0.832031 2 C 0.464844 2 0.167969 2.296875 0.167969 2.667969 C 0.167969 3.035156 0.464844 3.332031 0.832031 3.332031 L 2.3125 3.332031 L 4.464844 12 L 13.332031 12 L 13.332031 10.667969 L 5.507812 10.667969 L 5.285156 9.78125 L 14.667969 8.121094 L 14.667969 3.332031 Z M 4.667969 12.667969 C 4.113281 12.667969 3.667969 13.113281 3.667969 13.667969 C 3.667969 14.21875 4.113281 14.667969 4.667969 14.667969 C 5.21875 14.667969 5.667969 14.21875 5.667969 13.667969 C 5.667969 13.113281 5.21875 12.667969 4.667969 12.667969 Z M 12.667969 12.667969 C 12.113281 12.667969 11.667969 13.113281 11.667969 13.667969 C 11.667969 14.21875 12.113281 14.667969 12.667969 14.667969 C 13.21875 14.667969 13.667969 14.21875 13.667969 13.667969 C 13.667969 13.113281 13.21875 12.667969 12.667969 12.667969 Z M 12.667969 12.667969 "/>
</g>
</svg>
